M48
METRIC,LZ,000.000
;FILE_FORMAT=3:3
;TYPE=PLATED
;Layer: Drill PTH
;EasyEDA v6.4.25, 2021-11-28T11:33:34--5:00
;3e069f70b0c04cf4b9dc543adf14206e,103c4985fa89468a83afb685d03d8d7e,10
;Gerber Generator version 0.2
;Holesize 1 = 0.306 mm
T01C0.306
;Holesize 2 = 0.712 mm
T02C0.712
;Holesize 3 = 0.889 mm
T03C0.889
;Holesize 4 = 0.900 mm
T04C0.900
;Holesize 5 = 0.901 mm
T05C0.901
;Holesize 6 = 1.101 mm
T06C1.101
%
G05
G90
T01
X057150Y031661
X030226Y034458
X058520Y026563
T02
X056896Y015621
X059436Y015621
X057404Y038227
X059944Y038227
T03
X021463Y036195
X024003Y036195
X037211Y047879
X039751Y047879
X042291Y047879
X044831Y047879
X032004Y004445
X034544Y004445
X037084Y004445
X039624Y004445
T04
X032258Y013589
X039878Y013589
X032131Y008890
X039751Y008890
X033528Y037338
X041148Y037338
X054737Y020955
X062357Y020955
X054864Y033782
X062484Y033782
X043815Y037465
X051435Y037465
X038989Y041529
X046609Y041529
T05
X021336Y032893G85X021336Y032893
X023876Y032893G85X023876Y032893
X026416Y032893G85X026416Y032893
X028956Y032893G85X028956Y032893
X031496Y032893G85X031496Y032893
X034036Y032893G85X034036Y032893
X036576Y032893G85X036576Y032893
X039116Y032893G85X039116Y032893
X041656Y032893G85X041656Y032893
X044196Y032893G85X044196Y032893
X021336Y017653G85X021336Y017653
X023876Y017653G85X023876Y017653
X026416Y017653G85X026416Y017653
X028956Y017653G85X028956Y017653
X031496Y017653G85X031496Y017653
X034036Y017653G85X034036Y017653
X036576Y017653G85X036576Y017653
X039116Y017653G85X039116Y017653
X041656Y017653G85X041656Y017653
X044196Y017653G85X044196Y017653
X024638Y013335
X024638Y010795
X053213Y011557
X053213Y009017
X045593Y012319
X045593Y009779
X053340Y043180
X053340Y040640
T06
X027864Y044668
X027864Y040168
X034366Y044668
X034366Y040168
M30
