G04 Layer: BottomSolderMaskLayer*
G04 EasyEDA v6.4.25, 2021-11-28T11:33:34--5:00*
G04 3e069f70b0c04cf4b9dc543adf14206e,103c4985fa89468a83afb685d03d8d7e,10*
G04 Gerber Generator version 0.2*
G04 Scale: 100 percent, Rotated: No, Reflected: No *
G04 Dimensions in millimeters *
G04 leading zeros omitted , absolute positions ,4 integer and 5 decimal *
%FSLAX45Y45*%
%MOMM*%

%ADD28C,1.9812*%
%ADD30C,1.6764*%
%ADD31C,1.2954*%
%ADD32C,1.7526*%
%ADD33C,1.9812*%
%ADD34C,1.9016*%

%LPD*%
D28*
G01*
X2133600Y3289300D03*
G01*
X2387600Y3289300D03*
G01*
X2641600Y3289300D03*
G01*
X2895600Y3289300D03*
G01*
X3149600Y3289300D03*
G01*
X3403600Y3289300D03*
G01*
X3657600Y3289300D03*
G01*
X3911600Y3289300D03*
G01*
X4165600Y3289300D03*
G01*
X4419600Y3289300D03*
G01*
X2133600Y1765300D03*
G01*
X2387600Y1765300D03*
G01*
X2641600Y1765300D03*
G01*
X2895600Y1765300D03*
G01*
X3149600Y1765300D03*
G01*
X3403600Y1765300D03*
G01*
X3657600Y1765300D03*
G01*
X3911600Y1765300D03*
G01*
X4165600Y1765300D03*
G01*
X4419600Y1765300D03*
G36*
X2062479Y3535679D02*
G01*
X2062479Y3703320D01*
X2230120Y3703320D01*
X2230120Y3535679D01*
G37*
D30*
G01*
X2400300Y3619500D03*
D31*
G01*
X5689600Y1562100D03*
G01*
X5943600Y1562100D03*
G01*
X5740400Y3822700D03*
G01*
X5994400Y3822700D03*
G36*
X3637279Y4704079D02*
G01*
X3637279Y4871720D01*
X3804920Y4871720D01*
X3804920Y4704079D01*
G37*
D30*
G01*
X3975100Y4787900D03*
G01*
X4229100Y4787900D03*
G01*
X4483100Y4787900D03*
G36*
X3116579Y360679D02*
G01*
X3116579Y528320D01*
X3284220Y528320D01*
X3284220Y360679D01*
G37*
G01*
X3454400Y444500D03*
G01*
X3708400Y444500D03*
G01*
X3962400Y444500D03*
D32*
G01*
X2463800Y1333500D03*
G01*
X2463800Y1079500D03*
G01*
X5321300Y1155700D03*
G01*
X5321300Y901700D03*
G01*
X4559300Y1231900D03*
G01*
X4559300Y977900D03*
G01*
X5334000Y4318000D03*
G01*
X5334000Y4064000D03*
D33*
G01*
X3225800Y1358900D03*
G01*
X3987800Y1358900D03*
G01*
X3213100Y889000D03*
G01*
X3975100Y889000D03*
G01*
X3352800Y3733800D03*
G01*
X4114800Y3733800D03*
G01*
X5473700Y2095500D03*
G01*
X6235700Y2095500D03*
G01*
X5486400Y3378200D03*
G01*
X6248400Y3378200D03*
G01*
X4381500Y3746500D03*
G01*
X5143500Y3746500D03*
G01*
X3898900Y4152900D03*
G01*
X4660900Y4152900D03*
D34*
G01*
X2786379Y4466844D03*
G01*
X2786379Y4016755D03*
G01*
X3436620Y4466844D03*
G01*
X3436620Y4016755D03*
M02*
